<?xml version="1.0" standalone="no"?>
<!DOCTYPE svg PUBLIC "-//W3C//DTD SVG 20010904//EN"
 "http://www.w3.org/TR/2001/REC-SVG-20010904/DTD/svg10.dtd">
<svg version="1.0" xmlns="http://www.w3.org/2000/svg"
 width="1000.000000pt" height="625.000000pt" viewBox="0 0 1000.000000 625.000000"
 preserveAspectRatio="xMidYMid meet">

<g transform="translate(0.000000,625.000000) scale(0.100000,-0.100000)"
fill="#000000" stroke="none">
<path d="M4725 6239 c-1430 -126 -2594 -1220 -2816 -2649 -27 -172 -37 -591
-19 -767 124 -1225 935 -2252 2093 -2652 1279 -441 2698 -7 3514 1076 343 456
555 1000 613 1572 13 133 13 479 0 612 -95 943 -604 1784 -1395 2305 -587 386
-1291 564 -1990 503z m610 -49 c877 -101 1644 -547 2160 -1255 293 -401 475
-852 558 -1375 18 -116 21 -178 21 -435 0 -325 -10 -424 -69 -690 -148 -661
-541 -1287 -1079 -1717 -1131 -903 -2726 -900 -3861 7 -140 112 -355 328 -468
470 -349 437 -560 921 -650 1495 -18 116 -21 178 -21 435 0 257 3 319 21 435
89 566 286 1026 630 1472 105 134 350 384 483 489 496 395 1076 627 1695 679
129 10 451 5 580 -10z"/>
<path d="M4940 5754 c0 -47 3 -55 16 -50 9 3 36 6 60 6 l44 0 0 50 0 50 -60 0
-60 0 0 -56z"/>
<path d="M4790 5460 c-310 -32 -581 -111 -845 -245 -246 -124 -430 -260 -628
-464 -333 -343 -542 -755 -628 -1236 -21 -114 -24 -162 -24 -390 0 -228 3
-276 24 -390 86 -482 295 -892 630 -1238 379 -390 843 -623 1391 -698 122 -17
458 -17 580 0 785 107 1439 568 1800 1268 101 195 179 432 221 668 21 114 24
162 24 390 0 228 -3 276 -24 390 -86 484 -296 895 -635 1243 -367 377 -828
611 -1351 688 -124 18 -421 26 -535 14z m419 -671 c191 -44 324 -163 356 -316
8 -39 11 -39 -97 -13 -282 66 -664 66 -947 -1 -46 -10 -86 -17 -88 -15 -7 7
18 88 39 130 63 123 233 214 448 240 63 7 203 -5 289 -25z m121 -389 c141 -26
268 -67 374 -123 101 -52 220 -166 259 -247 33 -68 50 -140 33 -140 -6 0 -63
11 -126 24 -556 118 -1174 120 -1724 6 -82 -17 -150 -30 -151 -28 -1 2 4 28
12 58 62 240 357 418 783 470 124 15 409 5 540 -20z m130 -490 c252 -22 496
-73 619 -130 88 -41 206 -161 249 -251 40 -85 62 -176 62 -265 l0 -71 -142 34
c-621 144 -1326 169 -2055 73 -149 -20 -412 -67 -525 -94 l-58 -13 0 71 c0 89
22 180 62 265 36 76 157 205 224 239 107 54 415 121 654 140 147 13 772 14
910 2z m5 -670 c706 -45 1013 -156 1141 -414 82 -168 84 -318 5 -474 -35 -68
-61 -94 -122 -121 -79 -35 -508 -97 -839 -121 -80 -5 -171 -12 -203 -15 -52
-4 -58 -3 -53 13 29 98 31 365 3 467 -48 173 -156 268 -322 284 -276 26 -428
-76 -479 -321 -19 -92 -20 -241 -2 -358 7 -47 12 -86 11 -88 -11 -13 -619 46
-847 83 -258 42 -315 70 -369 176 -80 159 -78 306 7 479 119 242 408 358 994
400 85 6 173 12 195 14 103 8 738 5 880 -4z m-1750 -1154 c430 -82 1080 -127
1533 -107 482 22 826 61 1199 137 l32 6 -10 -38 c-19 -69 -98 -209 -159 -281
-98 -117 -247 -216 -417 -276 -177 -64 -443 -91 -888 -90 -642 0 -904 44
-1124 187 -166 108 -294 272 -345 445 l-16 53 28 -5 c15 -2 90 -16 167 -31z"/>
<path d="M2270 3224 c0 -8 5 -12 10 -9 6 4 8 11 5 16 -9 14 -15 11 -15 -7z"/>
<path d="M7715 3231 c-3 -5 -1 -12 5 -16 5 -3 10 1 10 9 0 18 -6 21 -15 7z"/>
<path d="M4990 450 c0 -5 5 -10 10 -10 6 0 10 5 10 10 0 6 -4 10 -10 10 -5 0
-10 -4 -10 -10z"/>
</g>
</svg>
